# xmcd
#
# Track frame offsets:
#	150
#	18031
#	32861
#	48070
#	61489
#	82060
#	98412
#	115267
#	128818
#	147484
#	163239
#	180752
#	195534
#	216303
#	235206
#	249172
#	270999
#	287845
#
# Disc length: 4020 seconds
# Revision: 0
# Processed by: cddbd v1.5.2PL0 Copyright (c) Steve Scherf et al.
# Submitted via: dBpowerAMP V12.0
#
DISCID=f20fb212
DTITLE=Charlie Landsborough - The Very Best of: Charlie Landsborough
DYEAR=2011
DGENRE=Country
TTITLE0=What Colour Is The Wind
TTITLE1=Down To Earth
TTITLE2=Part of Me
TTITLE3=Some Mother's Son
TTITLE4=If Only
TTITLE5=Blue Ubrella
TTITLE6=Smile
TTITLE7=If Only
TTITLE8=If Only I Had Wings
TTITLE9=Saviour's Song
TTITLE10=Like Rain
TTITLE11=What Haooened To Love
TTITLE12=Fog On The River 
TTITLE13=My Heart Would Know
TTITLE14=Loreto
TTITLE15=Not A Day Goes By
TTITLE16=When ou're Not A Dream
TTITLE17=Here There And Everywhere
EXTD=
EXTT0=
EXTT1=
EXTT2=
EXTT3=
EXTT4=
EXTT5=
EXTT6=
EXTT7=
EXTT8=
EXTT9=
EXTT10=
EXTT11=
EXTT12=
EXTT13=
EXTT14=
EXTT15=
EXTT16=
EXTT17=
PLAYORDER=
